<?xml version="1.0" encoding="utf-8"?>
<!-- Generator: Adobe Illustrator 27.5.0, SVG Export Plug-In . SVG Version: 6.00 Build 0)  -->
<svg version="1.1" id="Capa_1" xmlns="http://www.w3.org/2000/svg" xmlns:xlink="http://www.w3.org/1999/xlink" x="0px" y="0px"
	 viewBox="0 0 2122 2122" style="enable-background:new 0 0 2122 2122;" xml:space="preserve">
<g>
	<path style="fill:#FFD135;" d="M1455.691,1509.988v-676.02v-66.563V716.25h66.125V603.977h-1.625
		c1.723-23.457-4.535-78.656-5.453-82.484c-0.848-3.559-1.816-7.086-2.828-10.594c-0.02,0.004-0.035,0.004-0.051,0.004
		c-19.547-66.898-70.203-124.027-133.629-160.246c-68.23-38.938-152.504-43.316-220.422-82.367
		c-46.043-26.465-77.332-67.152-90.828-114.234c22.637-3.168,40.07-22.551,40.07-46.059c0-25.719-20.844-46.566-46.563-46.566
		s-46.566,20.848-46.566,46.566c0,23.508,17.438,42.894,40.074,46.059c-13.496,47.082-44.785,87.773-90.824,114.234
		c-67.926,39.051-152.203,43.43-220.414,82.367c-66.766,38.117-119.449,99.375-136.523,170.836
		c-0.918,3.828-7.172,59.027-5.449,82.484h-1.277V716.25h66.125v51.156v804.566v51.117h-66.125v112.27h43.594
		c-1.566,15.738,4.117,52.781,4.953,55.348c15.504,47.949,63.359,89.051,124.008,114.629
		c61.957,26.125,138.508,29.066,200.207,55.266c51.527,21.879,82.727,58.254,88.395,99.297c0.273-1.957,0.652-3.902,1.043-5.84
		c0.266-1.27,0.535-2.539,0.84-3.801c8.906-37.055,39.055-69.508,86.512-89.656c61.691-26.199,138.246-29.141,200.211-55.266
		c57.625-24.305,103.633-62.633,121.383-107.523c0.02,0,0.027,0.004,0.047,0.004c0.926-2.355,1.805-4.723,2.574-7.109
		c0.832-2.566,6.52-39.609,4.949-55.348h43.594v-112.27h-66.125v-51.117V1509.988z"/>
	<g>
		<path style="fill:#F59D01;" d="M1521.816,716.25V603.977h-1.625H600.785h-1.277V716.25h66.125v906.84h-66.125v112.27h43.594
			h835.121h43.594v-112.27h-66.125V716.25H1521.816z M1256.309,1623.09H865.016V716.25h391.293V1623.09z"/>
	</g>
	<g>
		<path style="fill:#C9610E;" d="M1470.699,1797.816c-12.867-0.832-25.742-1.629-38.633-2.305
			c-67.266-3.539-136.059-5.41-203.098,0.645c-54.32,4.902-114.793,15.617-146.391,45.199
			c-34.254,32.066-37.594,74.719-36.355,111.762c1.082,32.547,7.191,65.02,16.332,97.105c-0.77,3.195-1.441,6.41-1.891,9.676
			c-5.668-41.043-36.867-77.418-88.395-99.297c-61.699-26.199-138.25-29.141-200.207-55.266
			c-60.648-25.578-108.504-66.68-124.008-114.629c-0.836-2.566-6.52-39.609-4.953-55.348h835.121
			c1.57,15.738-4.117,52.781-4.949,55.348C1472.504,1793.094,1471.625,1795.461,1470.699,1797.816z"/>
		<rect x="1387.945" y="603.977" style="fill:#FFD135;" width="133.871" height="112.273"/>
		<rect x="599.508" y="603.977" style="fill:#E27D0C;" width="434.848" height="112.273"/>
		<rect x="1387.945" y="1623.09" style="fill:#FFD135;" width="133.871" height="112.27"/>
		<rect x="599.508" y="1623.09" style="fill:#E27D0C;" width="434.848" height="112.27"/>
		<polygon style="fill:#884216;" points="1198.313,867.285 1060.711,766.91 1060.711,766.84 1060.664,766.871 1060.613,766.84 
			1060.613,766.91 923.016,867.285 923.016,1479.012 1060.613,1572.473 1060.613,1572.535 1060.664,1572.504 1060.711,1572.535 
			1060.711,1572.473 1198.313,1479.012 		"/>
		<polygon style="fill:#661E07;" points="1060.664,1479.012 1060.664,867.285 1129.492,817.078 1060.711,766.91 1060.711,766.84 
			1060.664,766.871 1060.613,766.84 1060.613,766.91 923.016,867.285 923.016,1479.012 1060.613,1572.473 1060.613,1572.535 
			1060.664,1572.504 1060.711,1572.535 1060.711,1572.473 1129.492,1525.754 		"/>
		<polygon style="fill:#884216;" points="665.633,767.406 665.633,1571.973 802.523,1478.988 802.523,867.266 		"/>
		<polygon style="fill:#661E07;" points="748.488,827.848 665.633,767.406 665.633,1571.973 748.488,1515.688 		"/>
		<polygon style="fill:#884216;" points="1455.691,767.406 1455.691,1571.973 1318.805,1478.988 1318.805,867.266 		"/>
		<polygon style="fill:#661E07;" points="1410.055,1478.988 1410.055,867.266 1455.691,833.969 1455.691,767.406 1318.805,867.266 
			1318.805,1478.988 1455.691,1571.973 1455.691,1509.988 		"/>
		<path style="fill:#C9610E;" d="M1514.738,521.492c-0.848-3.559-1.816-7.086-2.828-10.594c-14.168,1.242-28.348,2.418-42.535,3.434
			c-74.055,5.274-149.785,8.055-223.594-0.961c-59.809-7.309-126.375-23.277-161.168-67.359
			c-37.711-47.789-41.387-111.359-40.027-166.57c1.031-41.84,6.195-83.598,14.047-124.977c-1.566-0.063-3.113-0.199-4.637-0.41
			c-13.5,47.082-44.785,87.77-90.824,114.234c-67.926,39.051-152.203,43.43-220.414,82.367
			c-66.766,38.117-119.449,99.375-136.523,170.836c-0.918,3.828-7.172,59.027-5.449,82.484h919.406
			C1521.914,580.519,1515.656,525.32,1514.738,521.492z"/>
		<path style="fill:#E69401;" d="M1060.488,154.559c25.719,0,46.563-20.848,46.563-46.562c0-25.719-20.844-46.566-46.563-46.566
			s-46.566,20.848-46.566,46.566c0,23.508,17.441,42.891,40.074,46.059c1.523,0.211,3.07,0.348,4.637,0.41
			C1059.254,154.492,1059.863,154.559,1060.488,154.559z"/>
	</g>
</g>
</svg>
